<mxfile host="app.diagrams.net" modified="2023-10-13T02:36:38.532Z" agent="Mozilla/5.0 (X11; Linux x86_64) AppleWebKit/537.36 (KHTML, like Gecko) Chrome/118.0.0.0 Safari/537.36" version="22.0.4" etag="exzuvSJApyOx8llRtMdO" type="github">
  <diagram name="第 1 页" id="dPEF6ZXibk5AAm-VxSXz">
    <mxGraphModel>
      <root>
        <mxCell id="0" />
        <mxCell id="1" parent="0" />
      </root>
    </mxGraphModel>
  </diagram>
</mxfile>
